<?xml version="1.0" encoding="utf-8"?>
<!-- Generator: Adobe Illustrator 22.1.0, SVG Export Plug-In . SVG Version: 6.00 Build 0)  -->
<svg version="1.1" id="Layer_1" xmlns="http://www.w3.org/2000/svg" xmlns:xlink="http://www.w3.org/1999/xlink" x="0px" y="0px"
	 viewBox="0 0 100 125" style="enable-background:new 0 0 100 125;" xml:space="preserve">
<path d="M1.4,55c-0.9-11.6,3-22.6,10.9-31C20,15.7,31,10.9,42.4,10.9c12.5,0,24.2,5.7,32,15.3L92.8,7.9c1.4-1.4,3.6-1.4,4.9,0
	c1.4,1.4,1.4,3.6,0,4.9L45.8,64.4c-0.7,0.7-1.5,1-2.5,1l0,0c-0.9,0-1.8-0.4-2.5-1l-17-17.2c-1.4-1.4-1.4-3.6,0-4.9s3.6-1.4,4.9,0
	L43.4,57l26-25.8C62.9,22.9,53,18,42.4,18c-9.4,0-18.5,4-25,10.9c-6.5,7-9.7,16.1-9.1,25.8C9.5,71.5,23,85.1,39.8,86.3
	c17.7,1.3,33.6-11.4,36.3-28.8c0.3-1.7,0.4-3.5,0.4-5.3c0-1.9,1.6-3.5,3.5-3.5s3.5,1.6,3.5,3.5c0,2.1-0.2,4.2-0.5,6.3
	c-3.1,20-20.7,34.8-40.8,34.8c-1,0-1.9,0-2.9-0.1C19.1,91.6,2.8,75.2,1.4,55z"/>
</svg>
